PathFileType	4	(X/Y/Z)	C:\Users\Biomechanik\SynologyDrive\AlexP\Athlete_03\Athlete_3_22_07_06\sq_70_EMG\marker_experimental.trc																																																																																																																																																																												
DataRate	CameraRate	NumFrames	NumMarkers	Units	OrigDataRate	OrigDataStartFrame	OrigNumFrames																																																																																																																																																																								
200	200	4	58	mm	200	192	1537																																																																																																																																																																								
Frame#	Time	BL			BR			GLAB			RFHD			LFHD			C7			T6			SPINMOL			SPINM2			SPINM3			T12			BELTOL			BELT2			BELT3			SACROL			SACR2			SACR3			LTHOL			LTH2			LTH3			LSHAOL			LSHA2			LSHA3			LHEE			LTOE			LM5			RTHOL			RTH2			RTH3			RSHAOL			RSHA2			RSHA3			RHEE			RTOE			RM5			STRN			XIPH			LACR			LUAOL			LUA2			LUA3			LLAOL			LLA2			LLA3			LWRU			RACR			RUAOL			RUA3			RLAOL			RLA2			RLA3			RWRU			USERMO0			USERMO1			USERMO2			USERMO3			USERMO4			USERMO5		
		X1	Y1	Z1	X2	Y2	Z2	X3	Y3	Z3	X4	Y4	Z4	X5	Y5	Z5	X6	Y6	Z6	X7	Y7	Z7	X8	Y8	Z8	X9	Y9	Z9	X10	Y10	Z10	X11	Y11	Z11	X12	Y12	Z12	X13	Y13	Z13	X14	Y14	Z14	X15	Y15	Z15	X16	Y16	Z16	X17	Y17	Z17	X18	Y18	Z18	X19	Y19	Z19	X20	Y20	Z20	X21	Y21	Z21	X22	Y22	Z22	X23	Y23	Z23	X24	Y24	Z24	X25	Y25	Z25	X26	Y26	Z26	X27	Y27	Z27	X28	Y28	Z28	X29	Y29	Z29	X30	Y30	Z30	X31	Y31	Z31	X32	Y32	Z32	X33	Y33	Z33	X34	Y34	Z34	X35	Y35	Z35	X36	Y36	Z36	X37	Y37	Z37	X38	Y38	Z38	X39	Y39	Z39	X40	Y40	Z40	X41	Y41	Z41	X42	Y42	Z42	X43	Y43	Z43	X44	Y44	Z44	X45	Y45	Z45	X46	Y46	Z46	X47	Y47	Z47	X48	Y48	Z48	X49	Y49	Z49	X50	Y50	Z50	X51	Y51	Z51	X52	Y52	Z52	X53	Y53	Z53	X54	Y54	Z54	X55	Y55	Z55	X56	Y56	Z56	X57	Y57	Z57	X58	Y58	Z58
																																																																																																																																																																															
193	0.96	116.7862091	1261.751221	-2264.789795	200.8492126	1299.920776	-44.58053207	513.2093506	1442.769409	-1148.636475	452.6717224	1460.408081	-1072.966797	452.1260681	1459.499268	-1227.849854	257.0813904	1377.348633	-1146.029541	104.4085388	1242.872192	-1150.994629	83.21665192	1211.567749	-1157.056519	51.30111313	1156.706787	-1108.324463	62.51464462	1153.217285	-1156.853638	49.19356155	1095.996948	-1155.749146	15.34206772	1068.247925	-1149.365356	4.529781818	1008.66864	-1097.436157	-1.495072126	1008.551208	-1147.239014	-2.914919138	931.9317017	-1177.062256	6.161698818	941.458313	-1127.738403	-28.89923477	885.916748	-1137.163086	115.9498825	723.3987427	-1402.603149	75.19781494	654.7254028	-1396.638306	121.2656631	662.9628296	-1415.840332	93.93344879	326.0938416	-1506.817017	63.04855347	253.5053864	-1511.961304	108.2496948	268.5888977	-1525.990967	70.75051117	36.95182419	-1496.708374	271.6757202	49.52178955	-1553.240601	205.8463593	23.26887512	-1644.878052	88.86181641	696.3296509	-899.6804199	126.4287109	634.336731	-866.0678101	81.2696991	635.6207886	-888.1201172	48.29359055	317.2120667	-805.5827026	93.25180817	261.8639221	-770.6262207	50.39318466	256.4442444	-796.1072388	53.69548798	34.87199783	-822.6273193	247.2281952	46.19128799	-747.5101929	179.0209045	36.61041641	-661.9275513	342.5434875	1229.811768	-1156.040405	314.1385193	1077.727173	-1149.415771	213.9419708	1319.149536	-1338.505859	89.88629913	1224.213989	-1363.369263	56.80669022	1179.338135	-1327.295532	59.77317429	1176.72644	-1378.437866	43.83986664	1145.259766	-1456.459961	86.0569458	1163.147827	-1503.362671	82.16478729	1196.071533	-1465.866577	127.6802902	1241.725464	-1519.185181	238.7071991	1318.847656	-962.7824097	112.7016144	1219.026367	-922.9232788	58.06699753	1192.975586	-916.5673828	64.61862946	1188.178467	-841.3577271	114.0501022	1229.887573	-844.2620239	102.2084427	1213.669556	-796.7642822	138.3343201	1251.918091	-773.4547729	0.060400698	0.0134837	-0.066561997	0.0117619	0.0268551	-0.037122302	0.025820199	0.0342246	-0.0317863	0.051367201	0.181820005	-0.807530999	0.428344011	2.979219913	-0.367161989	2.764889956	0	0
194	0.965	116.7741852	1261.562012	-2264.756836	200.6660004	1299.90979	-44.54691315	512.7550049	1443.444702	-1148.668335	452.1187744	1460.879517	-1073.035889	451.6500549	1459.974243	-1227.911011	256.8838806	1377.381958	-1146.107666	104.3678818	1242.859863	-1151.029297	83.18965149	1211.549438	-1157.09314	51.28755569	1156.699707	-1108.338867	62.50357819	1153.193481	-1156.865723	49.17386246	1095.984131	-1155.733154	15.39498329	1068.209473	-1149.336182	4.574870586	1008.62384	-1097.409546	-1.461592436	1008.509888	-1147.211426	-2.944761515	931.9230347	-1177.039551	6.166810036	941.4429932	-1127.713989	-28.89237785	885.8972778	-1137.123413	115.8664398	723.3805542	-1402.611084	75.12674713	654.703125	-1396.609985	121.1819229	662.9349365	-1415.821289	93.84252167	326.078125	-1506.769043	62.97392273	253.4840088	-1511.916016	108.1699371	268.5802917	-1525.955688	70.74852753	36.94498444	-1496.721802	271.6700134	49.52935028	-1553.249268	205.8467865	23.26502228	-1644.885864	89.03733826	696.329895	-899.7216187	126.6040344	634.3203125	-866.1446533	81.42642975	635.6236572	-888.1569214	48.39188766	317.2292786	-805.5440063	93.35797882	261.8652954	-770.6223755	50.46825409	256.4708862	-796.0564575	53.65904999	34.86385727	-822.5952759	247.2156525	46.20020676	-747.5258789	179.0355377	36.62290573	-661.9417725	342.5046997	1229.934814	-1156.112061	314.2218018	1077.808472	-1149.474365	213.8164673	1319.161255	-1338.533936	89.81424713	1224.156738	-1363.424561	56.77446365	1179.2677	-1327.330566	59.72819519	1176.661621	-1378.475586	43.84799957	1145.136353	-1456.462769	86.03795624	1163.065674	-1503.368286	82.14349365	1195.968628	-1465.85498	127.6311188	1241.669922	-1519.155518	238.644043	1318.850586	-962.8182373	112.6963043	1218.949707	-922.9477539	58.07668304	1192.882202	-916.5673828	64.60575867	1188.088745	-841.3572998	114.004982	1229.83374	-844.2452393	102.1465302	1213.612183	-796.74823	138.2268219	1251.884644	-773.4412842	0.060270999	0.0135005	-0.067174301	0.0118823	0.0277061	-0.037501998	0.0267714	0.035936099	-0.031736001	0.0501316	0.183277994	-0.804973006	0.426369011	2.974699974	-0.367231011	2.76699996	0	0
195	0.97	116.7670898	1261.378052	-2264.721191	200.4870758	1299.901855	-44.51015854	512.3146973	1444.099976	-1148.69458	451.5820313	1461.337524	-1073.099487	451.1897888	1460.432373	-1227.966919	256.6911621	1377.41394	-1146.180054	104.3267288	1242.849487	-1151.059937	83.16209412	1211.533447	-1157.125122	51.27327728	1156.69519	-1108.348755	62.49074554	1153.172363	-1156.873413	49.15043259	1095.975586	-1155.711304	15.44967842	1068.176147	-1149.303223	4.615612507	1008.583252	-1097.380371	-1.432501316	1008.474304	-1147.181763	-2.977883577	931.9249878	-1177.016235	6.16634655	941.4368896	-1127.690308	-28.8966465	885.8912964	-1137.087524	115.7743835	723.366333	-1402.624023	75.04522705	654.6838989	-1396.587646	121.0874176	662.9108887	-1415.807007	93.73677063	326.0613708	-1506.722534	62.88803864	253.4602509	-1511.871948	108.0784683	268.571167	-1525.921143	70.74514771	36.93769836	-1496.735718	271.6639404	49.53712463	-1553.257813	205.8473053	23.26135254	-1644.893188	89.20539856	696.3306885	-899.7598267	126.7739182	634.3068237	-866.2178345	81.57820129	635.6268311	-888.1904907	48.49061203	317.2452087	-805.5076294	93.46255493	261.8656616	-770.6187134	50.54459763	256.4958801	-796.0103149	53.62246704	34.85606766	-822.5637207	247.2051392	46.21085739	-747.5406494	179.0501099	36.63591385	-661.9562988	342.4646301	1230.056152	-1156.178711	314.3087769	1077.887451	-1149.529663	213.6891174	1319.172119	-1338.555786	89.74281311	1224.101196	-1363.474121	56.74295807	1179.198364	-1327.360718	59.6817627	1176.600464	-1378.509155	43.85447693	1145.0177	-1456.463867	86.0188446	1162.985107	-1503.370117	82.1215744	1195.869141	-1465.840942	127.5819244	1241.614868	-1519.124756	238.5812683	1318.851074	-962.847229	112.6881104	1218.870605	-922.9666748	58.08241653	1192.783691	-916.5635376	64.5929184	1187.998535	-841.3521118	113.9594727	1229.779785	-844.2254639	102.0853806	1213.55603	-796.7286377	138.1210938	1251.852051	-773.4251099	0.060204402	0.0134555	-0.067982599	0.0120137	0.028724199	-0.037886899	0.027607501	0.037496801	-0.031690098	0.049430698	0.185417995	-0.802155972	0.423994005	2.969259977	-0.36719799	2.769059896	0	0
196	0.975	116.765007	1261.200928	-2264.682861	200.312561	1299.898193	-44.47034073	511.8884277	1444.734497	-1148.714111	451.0614624	1461.781372	-1073.157227	450.7459106	1460.872681	-1228.016724	256.5029907	1377.444214	-1146.246582	104.2848282	1242.84082	-1151.086548	83.13359833	1211.519653	-1157.152588	51.25792694	1156.692993	-1108.354126	62.47579575	1153.153687	-1156.876587	49.12269592	1095.971069	-1155.68335	15.505126	1068.147705	-1149.266602	4.651135921	1008.546814	-1097.348511	-1.408388376	1008.444397	-1147.149902	-3.01539135	931.9377441	-1176.992188	6.159533978	941.4395752	-1127.666992	-28.9128418	885.8985596	-1137.055054	115.6724319	723.3560181	-1402.641724	74.95211029	654.6677246	-1396.570923	120.9811783	662.8905029	-1415.797852	93.61793518	326.0439453	-1506.678345	62.7921524	253.4345703	-1511.830322	107.9766693	268.5617676	-1525.887939	70.74047852	36.93003082	-1496.75	271.6575317	49.54505157	-1553.266479	205.8478699	23.25790596	-1644.900024	89.3645401	696.3322144	-899.7946167	126.9369049	634.2962646	-866.2868652	81.72379303	635.630249	-888.2208862	48.58899307	317.259613	-805.473877	93.56467438	261.8649597	-770.6152344	50.62146378	256.519043	-795.9688721	53.58617401	34.8486557	-822.5327148	247.1968842	46.22325516	-747.5543213	179.0644226	36.64943314	-661.9711914	342.4227295	1230.175415	-1156.23999	314.3987427	1077.963501	-1149.581055	213.5608521	1319.181519	-1338.572021	89.67298126	1224.045776	-1363.518799	56.71296692	1179.128418	-1327.386963	59.6352272	1176.540649	-1378.540039	43.86083984	1144.901978	-1456.463501	86.00121307	1162.905396	-1503.368286	82.10012054	1195.771851	-1465.824951	127.5337753	1241.560303	-1519.092651	238.5188446	1318.848755	-962.8692627	112.677002	1218.788818	-922.9785156	58.08510971	1192.678833	-916.5545654	64.58123016	1187.906738	-841.3411255	113.9143753	1229.724854	-844.2019653	102.0264893	1213.500366	-796.7047729	138.0180359	1251.819824	-773.4057617	0.0602124	0.0133497	-0.0689172	0.0121432	0.0299387	-0.038243301	0.028263601	0.038979199	-0.0316923	0.0492987	0.188091993	-0.799187005	0.421402007	2.962820053	-0.366991013	2.770920038	0	0
